<svg aria-hidden="true" style="position: absolute; width: 0; height: 0; overflow: hidden;" version="1.1" xmlns="http://www.w3.org/2000/svg" xmlns:xlink="http://www.w3.org/1999/xlink">
<defs>
<symbol id="icon-moon" viewBox="0 0 25 32">
<path stroke-linejoin="miter" stroke-linecap="butt" stroke-miterlimit="10" stroke-width="2.3579" d="M21.895 28.883c-1.79 0.903-3.902 1.432-6.138 1.432-2.683 0-5.188-0.762-7.311-2.081l0.059 0.034c-2.021-1.253-3.663-2.934-4.833-4.927l-0.036-0.067c-1.227-2.086-1.952-4.595-1.952-7.273 0-2.312 0.54-4.498 1.502-6.439l-0.038 0.085c1.067-2.166 2.591-3.961 4.456-5.316l0.041-0.028c1.81-1.315 4.004-2.214 6.384-2.513l0.068-0.007c2.324-0.28 4.682 0.034 6.855 0.913-4.593 2.296-7.663 7.587-7.365 13.573 0.291 5.841 3.695 10.686 8.307 12.613z"></path>
</symbol>
<symbol id="icon-mail" viewBox="0 0 41 32">
<path stroke-linejoin="round" stroke-linecap="round" stroke-miterlimit="4" stroke-width="3.0476" d="M39.619 5.143c0-1.99-1.714-3.619-3.81-3.619h-30.476c-2.095 0-3.81 1.629-3.81 3.619M39.619 5.143v21.714c0 1.99-1.714 3.619-3.81 3.619h-30.476c-2.095 0-3.81-1.629-3.81-3.619v-21.714M39.619 5.143l-19.048 12.667-19.048-12.669"></path>
</symbol>
<symbol id="icon-m" viewBox="0 0 39 32">
<path d="M1.693 0l3.388 4.402v20.917l-5.081 6.667h11.857l-5.081-6.667v-18.618l11.009 25.287-0.003 0.013 10.165-25.478v22.008l-3.388 3.457h14.397l-3.388-3.457-0.022-24.636 3.295-3.882h-10.177l-7.826 19.651-8.561-19.663h-10.584z"></path>
</symbol>
<symbol id="icon-instagram" viewBox="0 0 32 32">
<path d="M8.889 0c-4.907 0.006-8.883 3.982-8.889 8.889v14.221c0.005 4.908 3.982 8.885 8.889 8.89h14.221c4.908-0.005 8.885-3.982 8.89-8.889v-14.221c-0.005-4.908-3.982-8.885-8.889-8.89h-14.221zM8.889 3.556h14.221c2.944 0.004 5.329 2.389 5.333 5.332v14.221c-0.004 2.944-2.389 5.329-5.332 5.333h-14.219c-2.944-0.004-5.329-2.389-5.333-5.332v-14.219c0.004-2.944 2.389-5.329 5.332-5.333h0zM24.889 5.333c-0.982 0-1.778 0.796-1.778 1.778s0.796 1.778 1.778 1.778v0c0.982 0 1.778-0.796 1.778-1.778s-0.796-1.778-1.778-1.778v0zM16 7.111c-4.907 0.006-8.883 3.982-8.889 8.889v0.001c0.006 4.907 3.982 8.883 8.889 8.889h0.001c4.907-0.006 8.883-3.982 8.889-8.889v-0.001c-0.006-4.907-3.982-8.883-8.889-8.889h-0.001zM16 10.667c2.944 0.004 5.329 2.389 5.333 5.332v0c-0.004 2.944-2.389 5.329-5.332 5.333h-0c-2.944-0.004-5.329-2.389-5.333-5.332v-0c0.004-2.944 2.389-5.329 5.332-5.333h0z"></path>
</symbol>
<symbol id="icon-Dribbble" viewBox="0 0 32 32">
<path d="M16 0c-8.836 0-16 7.164-16 16s7.164 16 16 16 16-7.164 16-16-7.164-16-16-16zM26.762 7.798c1.676 2.173 2.708 4.919 2.768 7.903l0 0.014c-2.756-0.522-5.945-0.776-9.327-0.095-0.56-1.324-0.99-2.244-1.442-3.151l0.159 0.353c3.979-1.665 6.515-3.729 7.841-5.023zM25.087 5.973c-1.151 1.113-3.52 3.050-7.327 4.615-1.621-2.971-3.264-5.502-5.075-7.898l0.115 0.158c0.964-0.246 2.070-0.387 3.209-0.387 3.501 0 6.691 1.334 9.088 3.522l-0.011-0.010zM10.353 3.701c1.75 2.248 3.426 4.775 4.908 7.425l0.156 0.305c-3.317 1.049-7.487 1.747-12.615 1.568 0.978-4.16 3.766-7.522 7.468-9.263l0.083-0.035zM2.463 16c0-0.185 0.007-0.369 0.014-0.551 0.685 0.028 1.359 0.046 2.013 0.046 4.87 0 8.872-0.751 12.114-1.814 0.424 0.856 0.821 1.717 1.201 2.581-3.855 1.291-7.883 3.946-11.754 8.907-2.224-2.398-3.588-5.619-3.588-9.16 0-0.003 0-0.006 0-0.009v0.001zM7.88 26.824c3.605-4.672 7.302-7.136 10.865-8.292 1.29 3.329 2.211 6.664 2.698 9.862-1.599 0.723-3.467 1.145-5.433 1.145-0.003 0-0.006 0-0.008 0h0c-0.004 0-0.009 0-0.014 0-3.059 0-5.879-1.020-8.14-2.737l0.033 0.024zM23.733 27.104c-0.526-2.991-1.404-6.083-2.581-9.169 2.906-0.505 5.685-0.25 8.209 0.252-0.628 3.712-2.69 6.852-5.585 8.888l-0.043 0.029z"></path>
</symbol>
<symbol id="icon-linkedin" viewBox="0 0 38 32">
<path d="M4.536 0c-2.621 0-4.527 1.549-4.527 3.677 0 2.136 1.952 3.752 4.53 3.752 2.624 0 4.529-1.578 4.529-3.797-0.121-2.136-1.99-3.633-4.53-3.633zM0.757 8.925c-0.002 0-0.004-0-0.006-0-0.412 0-0.747 0.332-0.751 0.744v21.586c0.004 0.412 0.339 0.744 0.751 0.744 0.001 0 0.003 0 0.004 0h7.562c0.002 0 0.004 0 0.006 0 0.412 0 0.747-0.332 0.751-0.744v-21.586c-0.004-0.412-0.339-0.744-0.751-0.744-0.002 0-0.004 0-0.006 0h-7.561zM14.883 8.925c-0.002 0-0.004-0-0.006-0-0.412 0-0.747 0.332-0.751 0.744v21.586c0.004 0.412 0.339 0.744 0.751 0.744 0.002 0 0.004 0 0.006-0h6.805c0.417 0 0.755-0.334 0.755-0.744v-11.538c0-1.764 1.377-3.2 3.13-3.335 0.092-0.014 0.181-0.014 0.273-0.014 0.090 0 0.181 0 0.271 0.014 1.754 0.135 3.13 1.572 3.13 3.335v11.538c0.004 0.412 0.339 0.744 0.751 0.744 0.002 0 0.004 0 0.006-0h6.805c0.002 0 0.004 0 0.006 0 0.413 0 0.747-0.332 0.751-0.744v-12.654c0-4.817-2.624-9.677-8.477-9.677-2.204 0.003-4.246 0.696-5.922 1.875l0.033-0.022v-1.109c-0.004-0.412-0.339-0.744-0.751-0.744-0.002 0-0.004 0-0.006 0h-7.56z"></path>
</symbol>
<symbol id="icon-download" viewBox="0 0 31 32">
<path stroke-linejoin="round" stroke-linecap="round" stroke-miterlimit="4" stroke-width="2.9091" d="M26.727 19.818v5.091c0 1.406-1.14 2.545-2.545 2.545v0h-17.818c-1.406 0-2.545-1.14-2.545-2.545v0-5.091M8.909 13.455l6.364 6.364M15.273 19.818l6.364-6.364M15.273 19.818v-15.273"></path>
</symbol>
<symbol id="icon-Sun" viewBox="0 0 32 32">
<path fill="none" stroke="#fff" style="stroke: var(--color1, #fff)" stroke-linejoin="miter" stroke-linecap="butt" stroke-miterlimit="10" stroke-width="1.5448" d="M20.84 15.989c0 2.67-2.163 4.833-4.829 4.833-2.667-0.002-4.829-2.165-4.829-4.832 0-0 0-0.001 0-0.001v0c0-2.67 2.163-4.834 4.829-4.834 2.667 0.002 4.829 2.165 4.829 4.832 0 0 0 0.001 0 0.001v-0z"></path>
<path fill="#fff" style="fill: var(--color1, #fff)" d="M17.178 8.482h-2.337l-0.466-4.068h3.27l-0.467 4.068zM22.157 11.53l-1.647-1.66 2.556-3.198 2.304 2.324-3.213 2.534zM23.501 17.214l0.018-2.339 4.067-0.438-0.024 3.274-4.061-0.497zM20.42 22.173l1.67-1.635 3.176 2.581-2.338 2.29-2.507-3.235zM14.732 23.477l2.336 0.035 0.408 4.074-3.271-0.049 0.526-4.061zM9.801 20.356l1.622 1.684-2.603 3.16-2.269-2.357 3.25-2.487zM8.538 14.654l-0.051 2.339-4.074 0.376 0.072-3.273 4.053 0.557zM11.693 9.741l-1.694 1.611-3.138-2.628 2.371-2.254 2.461 3.272z"></path>
</symbol>
</defs>
</svg>
